<?xml version="1.0" standalone="no"?>
<!DOCTYPE svg PUBLIC "-//W3C//DTD SVG 20010904//EN"
 "http://www.w3.org/TR/2001/REC-SVG-20010904/DTD/svg10.dtd">
<svg version="1.0" xmlns="http://www.w3.org/2000/svg"
 width="256.000000pt" height="256.000000pt" viewBox="0 0 256.000000 256.000000"
 preserveAspectRatio="xMidYMid meet">

<g transform="translate(0.000000,256.000000) scale(0.100000,-0.100000)"
fill="#000000" stroke="none">
<path fill="#005b0c" d="M1025 2470 c-236 -48 -431 -154 -610 -334 -178 -179 -286 -386 -330
-629 -24 -132 -17 -405 13 -518 124 -464 496 -815 950 -894 109 -19 344 -19
454 0 478 83 880 485 963 963 19 109 19 344 0 453 -83 476 -469 867 -948 960
-130 25 -364 25 -492 -1z m318 -44 c28 -11 54 -36 108 -103 5 -7 18 -13 29
-13 38 0 187 -53 271 -96 350 -180 569 -538 569 -929 0 -152 -39 -325 -99
-444 -21 -41 -22 -45 -7 -82 54 -134 -50 -268 -190 -246 -32 5 -42 0 -102 -48
-267 -216 -659 -283 -984 -170 -126 44 -316 157 -367 219 -10 12 -23 14 -52
10 -57 -9 -105 3 -146 39 -62 55 -79 127 -47 207 16 39 16 42 -9 98 -58 132
-87 269 -87 417 0 269 100 518 285 714 147 155 327 259 525 305 36 9 66 20 69
27 8 24 67 83 96 95 39 17 97 17 138 0z"/>
<path fill="#005b0c" d="M1020 2194 c-90 -24 -268 -118 -348 -184 -147 -122 -268 -318 -313
-505 -44 -180 -27 -402 42 -571 28 -68 31 -70 59 -66 50 7 99 -7 137 -41 61
-53 79 -129 49 -202 l-14 -34 66 -51 c89 -69 246 -144 357 -171 126 -31 314
-31 440 0 108 26 267 101 351 166 l62 48 -14 33 c-52 125 53 261 187 242 30
-5 33 -2 61 59 50 110 71 221 71 368 0 169 -23 270 -98 420 -97 194 -234 331
-429 425 -115 56 -237 91 -244 71 -9 -26 -68 -84 -99 -97 -41 -18 -95 -18
-136 0 -32 13 -97 78 -97 96 0 13 -23 11 -90 -6z m-44 -380 c38 -18 58 -49 68
-107 l7 -39 53 50 c63 60 111 86 191 102 158 33 316 -34 380 -161 39 -76 46
-160 43 -486 -3 -266 -5 -302 -21 -326 -53 -81 -161 -81 -214 0 -16 24 -19 63
-23 338 -5 290 -7 313 -27 357 -32 71 -117 103 -204 76 -56 -16 -133 -91 -149
-144 -7 -24 -15 -152 -19 -324 -7 -314 -9 -324 -72 -351 -68 -27 -134 -6 -166
54 -16 29 -18 72 -21 442 -3 458 -2 473 57 512 40 27 71 29 117 7z"/>
</g>
</svg>
